<svg id="9deb3e6c-3721-413a-8078-e30fdc7fcc70" data-name="レイヤー 1" xmlns="http://www.w3.org/2000/svg" xmlns:xlink="http://www.w3.org/1999/xlink" viewBox="0 0 1920 1217">
  <defs>
    <style>
      .\38 736bde5-ee83-43e5-9625-6422101fac95 {
        fill: url(#7586590f-a993-403f-91f3-3592cfb497a1);
      }
    </style>
    <linearGradient id="7586590f-a993-403f-91f3-3592cfb497a1" data-name="名称未設定グラデーション 20" x1="670.48" y1="57.69" x2="1258.4" y2="1075.99" gradientTransform="translate(69.42 -89.36) rotate(5.7)" gradientUnits="userSpaceOnUse">
      <stop offset="0.04" stop-color="#ff9f99"/>
      <stop offset="0.19" stop-color="#f09ea0"/>
      <stop offset="0.48" stop-color="#c89ab3"/>
      <stop offset="0.88" stop-color="#8895d1"/>
      <stop offset="0.93" stop-color="#7e94d6"/>
    </linearGradient>
  </defs>
  <title>home-section01</title>
  <path class="8736bde5-ee83-43e5-9625-6422101fac95" d="M1313.3,1027.26c-136-54.89-141.72-165.34-446.3-140.48-266.13,21.72-562.51,220.94-633.1,270.89a128.39,128.39,0,0,1-60.56,23.21c-65.82,6.93-108.54-40-114.41-118.81-8.7-116.86,113.13-233.58,92-356.79-12.6-73.46-49.86-119.62-84.74-147.64C-15.73,491.84,10,360.17,111.5,333.1q1.92-.51,3.85-1s332.39-103.5,708.14-173.84c431.11-80.7,915.68-127.37,956-131.78,79.56-8.7,186.48,51,83.29,166.59,0,0-261.07,248.64-305.82,390.36s-65.89,370.47-65.89,370.47C1466.21,1042.18,1384.16,1055.85,1313.3,1027.26Z"/>
</svg>
