<svg id="36dbfbbc-2763-4a7a-8350-83336d241835" data-name="レイヤー 1" xmlns="http://www.w3.org/2000/svg" viewBox="0 0 432.85 107.3">
  <defs>
    <style>
      .\31 a4b57f1-3d2c-473f-abf5-81bd472ee402 {
        fill: #fff;
      }
    </style>
  </defs>
  <title>swg_logo_wf</title>
  <g>
    <path class="1a4b57f1-3d2c-473f-abf5-81bd472ee402" d="M31.8,107.3A4,4,0,0,1,28,104.63c0-.08-.05-.16-.07-.24L23.15,85.13a2.64,2.64,0,1,1,5.12-1.28l3.84,15.33,5.68-13.72a2.67,2.67,0,0,1,2.52-1.63c.28,0,28.11.7,42.26-12.66a25.72,25.72,0,0,0,8.13-18.69C91.11,37,87.21,25,79.09,16.73c-7.39-7.5-18-11.45-30.77-11.45h-.8c-19.77.25-33.3,9.73-37.93,19C4.27,34.91,3.84,46.55,8.44,55.41c4.21,8.12,12.3,13.31,23.4,15,.81.12,19.9,2.91,28.95-6.26,4.41-4.47,9.12-12.55,6.55-25.69-1.17-6-7.41-11.46-15.89-13.93-7.21-2.1-17.08-2.06-23.17,4.35-7.66,8.06-5,15.73-1.42,20.74,1.76,2.46,6.44,4.16,11.15,4.11,4.22-.07,7.6-1.54,9.27-4.05,2-3,2.54-5.52,1.56-7a4,4,0,0,0-4-1.5,3.09,3.09,0,0,0-2.67,2.25,2.64,2.64,0,0,1-5.11-1.33A8.26,8.26,0,0,1,44,35.93a9.28,9.28,0,0,1,9.24,3.86c1.27,2,2.75,6.28-1.61,12.82-2.65,4-7.6,6.3-13.58,6.4-6.53.08-12.75-2.44-15.53-6.32-6.6-9.24-5.91-19.24,1.88-27.44,6.46-6.8,17.37-9,28.47-5.79,10.36,3,18,10.08,19.59,18,3.17,16.21-3.63,26-8,30.41C53.82,78.74,33.35,76,31,75.63c-16.22-2.47-23.8-11-27.3-17.79C-1.62,47.48-1.2,34.06,4.86,21.93,10.22,11.22,25.46.29,47.45,0,62-.18,74.27,4.32,82.85,13,92,22.32,96.43,35.64,96,52.62A30.83,30.83,0,0,1,86.18,75C72.5,87.93,48.8,89.07,42,89.12l-6.37,15.39A4,4,0,0,1,32,107.29Z"/>
    <g>
      <path class="1a4b57f1-3d2c-473f-abf5-81bd472ee402" d="M146.6,30.58c7,0,12.31,2.92,14.68,7.34l-4.64,3.35a11.67,11.67,0,0,0-10-5.18c-4.75,0-8.42,2.59-8.42,6.15,0,2.81,2.16,5,6.91,6.15l6.15,1.51c7.56,1.83,11.23,5.5,11.23,11.23,0,7.23-6,12.31-16.3,12.31-7,0-12.41-2.59-14.79-7.12l5-3.56a11.71,11.71,0,0,0,10,5.07c5.4,0,9.5-2.48,9.5-6.15,0-2.81-2.16-5-6.37-6l-6.91-1.73c-7.45-1.84-10.9-5.61-10.9-11.34C131.7,35.87,138.18,30.58,146.6,30.58Z"/>
      <path class="1a4b57f1-3d2c-473f-abf5-81bd472ee402" d="M207.58,72.57h-6.26l-9.07-31.85h-.65l-9.07,31.85h-6.26L163.64,31.12H170l9.28,33.58h.43l9.18-33.58h6l9.18,33.47h.43l9.28-33.47h6.37Z"/>
      <path class="1a4b57f1-3d2c-473f-abf5-81bd472ee402" d="M247.45,67.39h-.32a14.12,14.12,0,0,1-11.55,6.15c-9,0-14.9-4.53-14.9-11.87,0-11.55,9.28-13,23.43-13.28l3.35-.11v-.76c0-9.18-4.53-11.34-9.82-11.34A10.87,10.87,0,0,0,227,43l-5.83-2.27c2.81-7.56,10.47-10.15,16.52-10.15,8.31,0,16.09,4.64,16.09,16.41V72.57h-6.37Zm-3.35-13.6c-6.8.32-17.06,0-17.06,7,0,4.32,3,7,9.39,7,6.59,0,11-5.94,11-9.61V53.68Z"/>
      <path class="1a4b57f1-3d2c-473f-abf5-81bd472ee402" d="M274.66,88.12c-8.64,0-13.39-3.78-16-7.45l4.75-3.78c1.51,1.73,4.32,5.51,11.23,5.51S286.32,79.27,286.43,72V66c-2.56,3.67-6.5,5.94-12.52,5.94-9.39,0-16.09-8-16.09-19.65v-.76c0-12.2,6.59-20.94,16.19-20.94a13.74,13.74,0,0,1,12.41,6.94V31.33h6.37v42.1C292.79,82.72,284.7,88.12,274.66,88.12ZM264.4,52.28c0,7.77,4,13.93,11.12,13.93,6.37,0,9.82-5.51,10.58-9.5a25.6,25.6,0,0,0,0-9.07c-.54-4-3.67-10.9-10.15-10.9-7.88,0-11.55,7-11.55,14.79Z"/>
      <path class="1a4b57f1-3d2c-473f-abf5-81bd472ee402" d="M323,47.74c-.32-3.13-2.05-6.48-6.8-6.48-5.51,0-7.45,5-7.45,11.23s1.94,11.12,7.56,11.12c4.43,0,6.48-2.59,6.69-5.4h11.23c-.22,9.39-8.2,15.11-17.71,15.11C304,73.33,297,64.59,297,52.5s7-20.84,19.43-20.84c10,0,17.6,7.23,17.81,16.09Z"/>
      <path class="1a4b57f1-3d2c-473f-abf5-81bd472ee402" d="M347.66,72.57h-12V17.3h11.55V36.52h.43c2.38-3,6.37-4.86,11.12-4.86,7.45,0,12.63,4,12.63,15.65V72.57h-12V47.2c0-4.75-2.16-5.94-5.94-5.94-4.1,0-5.83,4.21-5.83,9.82Z"/>
      <path class="1a4b57f1-3d2c-473f-abf5-81bd472ee402" d="M396.53,69h-.32c-1.62,2.16-4.43,4.32-9.61,4.32-7.45,0-13.6-5-13.6-12.09,0-8.31,6-13.17,18.68-13.17h4.21V45.91c0-3.35-1.51-5.5-5.18-5.5-3,0-4.86,1.4-4.86,4.32h-12c0-7.45,6.91-13.06,17.49-13.06,9.5,0,16.52,4.75,16.52,14.36V72.57H396.53Zm-4.75-14.25c-5,0-6.8,2.81-6.8,5.83,0,2.27,1.73,3.78,4.43,3.78,3.24,0,5.61-1.62,6.48-3.35V54.76Z"/>
      <path class="1a4b57f1-3d2c-473f-abf5-81bd472ee402" d="M425.94,73.33c-7.67,0-12.31-3.56-12.31-12.31v-20h-5.29V32.41h5.29v-10h12v10h6.69v8.64h-6.69V59.51c0,3.13,1.08,4,4.1,4a23.5,23.5,0,0,0,3.13-.22v9A19.75,19.75,0,0,1,425.94,73.33Z"/>
    </g>
  </g>
</svg>
