<svg id="5e796fcb-e659-4a50-ad4a-c8676831aa52" data-name="レイヤー 1" xmlns="http://www.w3.org/2000/svg" xmlns:xlink="http://www.w3.org/1999/xlink" viewBox="0 0 1920 560">
  <defs>
    <style>
      .fd6f5990-ab5b-4b64-b473-0e8a31b8f06b {
        fill: none;
      }

      .e1865974-d894-44fa-a5fd-54b4504a3572 {
        fill: #fff;
      }

      .c786ffb6-9105-46d9-bf5a-94bcc18efc4d {
        clip-path: url(#f64a4ab9-6e15-42e4-9328-4fd20f2fec2d);
      }

      .be97e788-2598-4ef4-8792-a37a653427fe {
        fill: url(#af3d1027-cb8a-4807-b61a-a3f9b36d3da5);
      }
    </style>
    <clipPath id="f64a4ab9-6e15-42e4-9328-4fd20f2fec2d">
      <rect id="b1080747-6b55-42b2-aa35-c611ea42af93" data-name="SVGID" class="fd6f5990-ab5b-4b64-b473-0e8a31b8f06b" width="1920" height="1217"/>
    </clipPath>
    <linearGradient id="af3d1027-cb8a-4807-b61a-a3f9b36d3da5" data-name="名称未設定グラデーション 7" x1="954.81" y1="-827.6" x2="954.81" y2="126.61" gradientTransform="matrix(0.99, 0.12, -0.12, 0.99, -26.6, 435.28)" gradientUnits="userSpaceOnUse">
      <stop offset="0.4" stop-color="#56388b"/>
      <stop offset="0.55" stop-color="#4d449a"/>
      <stop offset="0.77" stop-color="#395ebb"/>
    </linearGradient>
  </defs>
  <title>swg_home-header05</title>
  <polyline class="e1865974-d894-44fa-a5fd-54b4504a3572" points="0 0 1920 0 1920 560 0 560 0 0"/>
  <g class="c786ffb6-9105-46d9-bf5a-94bcc18efc4d">
    <path class="be97e788-2598-4ef4-8792-a37a653427fe" d="M-61.49-190.47c52.71-454,57-19.39,670.18,51.8S2152.81-212,2121,244c-18,258-771,369-1512,270-45.5-6.08-245.08-51.59-288-59.48a41.81,41.81,0,0,0-31.17,6.6C142.23,562.08-33.46,580.3-203,534.45-324.14,501.68-101,448.37-30.45,294.58a42.07,42.07,0,0,0-17.2-53.86C-303.54,92.88-94.51,93.93-61.49-190.47Z"/>
  </g>
</svg>
