<svg id="067cec69-4b13-43c8-8c6d-bf51e590bc91" data-name="レイヤー 1" xmlns="http://www.w3.org/2000/svg" viewBox="0 0 147.4 164.74">
  <defs>
    <style>
      .\34 2b0bd52-5b9c-4414-b177-f344453d9d93 {
        fill: #7c338f;
      }
    </style>
  </defs>
  <title>swg_logo_c</title>
  <path class="42b0bd52-5b9c-4414-b177-f344453d9d93" d="M48.83,164.74a6.09,6.09,0,0,1-5.77-4.09c0-.12-.08-.24-.11-.36L35.54,130.7a4.05,4.05,0,1,1,7.86-2l5.9,23.54L58,131.21a4.1,4.1,0,0,1,3.87-2.5c.43,0,43.15,1.08,64.88-19.43,8-7.52,12.16-17.17,12.48-28.7.64-23.78-5.35-42.25-17.81-54.9C110.09,14.17,93.77,8.11,74.19,8.11H73C42.61,8.5,21.84,23,14.72,37.29,6.56,53.6,5.9,71.47,13,85.08c6.46,12.47,18.89,20.44,35.93,23,1.24.19,30.56,4.47,44.44-9.61,6.77-6.86,14-19.27,10.06-39.44C101.59,49.85,92,41.45,79,37.66c-11.07-3.22-26.22-3.16-35.57,6.68-11.76,12.37-7.67,24.14-2.17,31.84,2.7,3.78,9.9,6.39,17.11,6.32,6.48-.11,11.67-2.37,14.23-6.22,3-4.53,3.89-8.48,2.39-10.82a6.16,6.16,0,0,0-6.09-2.3,4.74,4.74,0,0,0-4.09,3.46,4.05,4.05,0,0,1-7.84-2,12.68,12.68,0,0,1,10.67-9.42,14.25,14.25,0,0,1,14.18,5.93c2,3,4.22,9.64-2.47,19.69-4.06,6.1-11.66,9.68-20.85,9.83-10,.13-19.58-3.74-23.84-9.71-10.13-14.18-9.07-29.54,2.89-42.14,9.92-10.44,26.67-13.84,43.71-8.88C97.16,34.51,109,45.35,111.34,57.5c4.87,24.89-5.58,39.94-12.24,46.69-16.47,16.7-47.91,12.47-51.44,11.93C22.76,112.33,11.13,99.18,5.76,88.81c-8.24-15.9-7.6-36.52,1.71-55.15C15.69,17.22,39.1.44,72.86,0,95.24-.27,114,6.63,127.21,20c14.07,14.28,20.85,34.73,20.14,60.81-.37,13.77-5.43,25.34-15,34.39-21,19.81-57.39,21.56-67.85,21.64l-9.78,23.63a6.09,6.09,0,0,1-5.56,4.28Z"/>
</svg>
